<?xml version="1.0" encoding="utf-8"?>
<!-- Generator: Adobe Illustrator 21.0.0, SVG Export Plug-In . SVG Version: 6.00 Build 0)  -->
<svg version="1.1" id="图层_1" xmlns="http://www.w3.org/2000/svg" xmlns:xlink="http://www.w3.org/1999/xlink" x="0px" y="0px"
	 viewBox="0 0 20 20" style="enable-background:new 0 0 20 20;" xml:space="preserve">
<style type="text/css">
	.st0{fill:#FFFFFF;}
</style>
<path class="st0" d="M18.1,10.3c0.3,0,0.6-0.3,0.6-0.6s-0.3-0.6-0.6-0.6h-7.5V7.6h2.3c0.3,0,0.6-0.3,0.6-0.6V2.5
	c0-0.3-0.3-0.6-0.6-0.6H7.1c-0.3,0-0.6,0.3-0.6,0.6V7c0,0.3,0.3,0.6,0.6,0.6h2.3v1.4H1.9c-0.3,0-0.6,0.3-0.6,0.6s0.3,0.6,0.6,0.6
	h2.8v1.4H2.4c-0.3,0-0.6,0.3-0.6,0.6v4.5c0,0.3,0.3,0.6,0.6,0.6h5.9c0.3,0,0.6-0.3,0.6-0.6v-4.5c0-0.3-0.3-0.6-0.6-0.6H6v-1.4H14
	v1.4h-2.4c-0.3,0-0.6,0.3-0.6,0.6v4.5c0,0.3,0.3,0.6,0.6,0.6h5.9c0.3,0,0.6-0.3,0.6-0.6v-4.5c0-0.3-0.3-0.6-0.6-0.6h-2.2v-1.4
	L18.1,10.3L18.1,10.3z"/>
</svg>
