<?xml version="1.0" standalone="no"?><!DOCTYPE svg PUBLIC "-//W3C//DTD SVG 1.1//EN" "http://www.w3.org/Graphics/SVG/1.1/DTD/svg11.dtd"><svg t="1609143936644" class="icon" viewBox="0 0 1039 1024" version="1.1" xmlns="http://www.w3.org/2000/svg" p-id="9873" width="20.29296875" height="20" xmlns:xlink="http://www.w3.org/1999/xlink"><defs><style type="text/css"></style></defs><path d="M753.152 877.056h-449.024c-74.752 0-135.68-60.928-135.68-135.68V292.352c0-74.752 60.928-135.68 135.68-135.68h449.024c74.752 0 135.68 60.928 135.68 135.68v449.024c0 74.752-60.928 135.68-135.68 135.68z m-449.024-618.496c-17.92 0-33.28 15.36-33.28 33.28v449.024c0 17.92 15.36 33.28 33.28 33.28h449.024c17.92 0 33.28-15.36 33.28-33.28V292.352c0-17.92-15.36-33.28-33.28-33.28h-449.024z" p-id="9874" fill="#ffffff"></path><path d="M475.136 698.368h107.52v49.664h-107.52zM475.136 617.472h107.52v49.152h-107.52zM475.136 552.96h107.52v48.64h-107.52zM582.656 427.008v118.272h-108.032v-118.272h-57.344l111.616-141.312 111.104 141.312zM415.744 217.6c-28.16 0-51.2-23.04-51.2-51.2v-87.04c0-28.16 23.04-51.2 51.2-51.2s51.2 23.04 51.2 51.2v87.04c0 28.672-22.528 51.2-51.2 51.2zM641.024 217.6c-28.16 0-51.2-23.04-51.2-51.2v-87.04c0-28.16 23.04-51.2 51.2-51.2s51.2 23.04 51.2 51.2v87.04c0 28.672-22.528 51.2-51.2 51.2zM415.744 1005.056c-28.16 0-51.2-23.04-51.2-51.2v-87.04c0-28.16 23.04-51.2 51.2-51.2s51.2 23.04 51.2 51.2v87.04c0 28.672-22.528 51.2-51.2 51.2zM641.024 1005.056c-28.16 0-51.2-23.04-51.2-51.2v-87.04c0-28.16 23.04-51.2 51.2-51.2s51.2 23.04 51.2 51.2v87.04c0 28.672-22.528 51.2-51.2 51.2zM178.688 680.448h-87.04c-28.16 0-51.2-23.04-51.2-51.2s23.04-51.2 51.2-51.2h87.04c28.16 0 51.2 23.04 51.2 51.2s-23.04 51.2-51.2 51.2z" p-id="9875" fill="#ffffff"></path><path d="M178.688 455.168h-87.04c-28.16 0-51.2-23.04-51.2-51.2s23.04-51.2 51.2-51.2h87.04c28.16 0 51.2 23.04 51.2 51.2s-23.04 51.2-51.2 51.2z" p-id="9876" fill="#ffffff"></path><path d="M966.144 680.448h-87.04c-28.16 0-51.2-23.04-51.2-51.2s23.04-51.2 51.2-51.2h87.04c28.16 0 51.2 23.04 51.2 51.2s-23.04 51.2-51.2 51.2z" p-id="9877" fill="#ffffff"></path><path d="M966.144 455.168h-87.04c-28.16 0-51.2-23.04-51.2-51.2s23.04-51.2 51.2-51.2h87.04c28.16 0 51.2 23.04 51.2 51.2s-23.04 51.2-51.2 51.2z" p-id="9878" fill="#ffffff"></path></svg>