<?xml version="1.0" standalone="no"?><!DOCTYPE svg PUBLIC "-//W3C//DTD SVG 1.1//EN" "http://www.w3.org/Graphics/SVG/1.1/DTD/svg11.dtd"><svg t="1609145632553" class="icon" viewBox="0 0 1024 1024" version="1.1" xmlns="http://www.w3.org/2000/svg" p-id="11861" width="20" height="20" xmlns:xlink="http://www.w3.org/1999/xlink"><defs><style type="text/css"></style></defs><path d="M840.400048 806.526191h-656.800096C164.868987 806.526191 149.665281 791.322485 149.665281 772.591519V319.521083c0-18.730966 15.203706-33.934672 33.934671-33.934671h145.10417l54.368452-54.368453c6.203112-8.149186 15.933484-13.500891 27.001782-13.50089h203.851288c9.487112 0 18.122817 4.013778 24.32593 10.33852l57.652453 57.652452h144.496021c18.730966 0 33.934672 15.203706 33.934671 33.934672v452.948806c0 18.730966-15.203706 33.934672-33.934671 33.934672z m-328.400048-475.571921c-112.629053 0-203.851289 91.222235-203.851289 203.851289s91.222235 203.851289 203.851289 203.851289S715.851289 647.434612 715.851289 534.805559s-91.343865-203.851289-203.851289-203.851289z m0 325.359306c-67.139565 0-121.629647-54.490082-121.629647-121.629647s54.490082-121.629647 121.629647-121.629647 121.629647 54.490082 121.629647 121.629647c0 67.261195-54.490082 121.629647-121.629647 121.629647z m0 0" p-id="11862" fill="#ffffff"></path></svg>