<?xml version="1.0" encoding="utf-8"?>
<!-- Generator: Adobe Illustrator 21.0.0, SVG Export Plug-In . SVG Version: 6.00 Build 0)  -->
<svg version="1.1" id="图层_1" xmlns="http://www.w3.org/2000/svg" xmlns:xlink="http://www.w3.org/1999/xlink" x="0px" y="0px"
	 viewBox="0 0 16.5 16.5" style="enable-background:new 0 0 16.5 16.5;" xml:space="preserve">
<style type="text/css">
	.st0{fill:#00C074;}
</style>
<path class="st0" d="M14.9,0h0.5c0.6,0,1.1,0.5,1.1,1.1v14.2c0,0.6-0.5,1.1-1.1,1.1h-0.5c-0.6,0-1.1-0.5-1.1-1.1V1.1
	C13.7,0.5,14.2,0,14.9,0z M10.3,5.5h0.5c0.6,0,1.1,0.5,1.1,1.1v8.7c0,0.6-0.5,1.1-1.1,1.1h-0.5c-0.6,0-1.1-0.5-1.1-1.1V6.6
	C9.1,6,9.7,5.5,10.3,5.5z M5.7,8.2h0.5c0.6,0,1.1,0.5,1.1,1.1l0,0v5.9c0,0.6-0.5,1.1-1.1,1.1H5.7c-0.6,0-1.1-0.5-1.1-1.1V9.4
	C4.6,8.7,5.1,8.2,5.7,8.2z M1.1,11h0.5c0.6,0,1.1,0.5,1.1,1.1l0,0v3.2c0,0.6-0.5,1.1-1.1,1.1H1.1c-0.6,0-1.1-0.5-1.1-1.1v-3.2
	C0,11.5,0.5,11,1.1,11z"/>
</svg>
