<?xml version="1.0" standalone="no"?><!DOCTYPE svg PUBLIC "-//W3C//DTD SVG 1.1//EN" "http://www.w3.org/Graphics/SVG/1.1/DTD/svg11.dtd"><svg t="1616220802895" class="icon" viewBox="0 0 1024 1024" version="1.1" xmlns="http://www.w3.org/2000/svg" p-id="13210" width="20" height="20" xmlns:xlink="http://www.w3.org/1999/xlink"><defs><style type="text/css"></style></defs><path d="M368 196v632c0 2.2-1.8 4-4 4H244c-2.2 0-4-1.8-4-4V196c0-2.2 1.8-4 4-4h120c2.2 0 4 1.8 4 4z m-144-68c-26.5 0-48 21.5-48 48v672c0 26.5 21.5 48 48 48h160c26.5 0 48-21.5 48-48V176c0-26.5-21.5-48-48-48H224zM784 196v632c0 2.2-1.8 4-4 4H660c-2.2 0-4-1.8-4-4V196c0-2.2 1.8-4 4-4h120c2.2 0 4 1.8 4 4z m-144-68c-26.5 0-48 21.5-48 48v672c0 26.5 21.5 48 48 48h160c26.5 0 48-21.5 48-48V176c0-26.5-21.5-48-48-48H640z" p-id="13211" fill="#4D97FF"></path></svg>