<?xml version="1.0" encoding="utf-8"?>
<!-- Generator: Adobe Illustrator 21.0.0, SVG Export Plug-In . SVG Version: 6.00 Build 0)  -->
<svg version="1.1" id="图层_1" xmlns="http://www.w3.org/2000/svg" xmlns:xlink="http://www.w3.org/1999/xlink" x="0px" y="0px"
	 viewBox="0 0 16 16" style="enable-background:new 0 0 16 16;" xml:space="preserve">
<style type="text/css">
	.st0{fill:#8E8E8E;}
</style>
<path class="st0" d="M3.333,15.192c-1.024,0-1.858-0.834-1.858-1.858V8.667c0-1.024,0.834-1.858,1.858-1.858h0.808l0-2.142
	c0-2.127,1.731-3.858,3.858-3.858c1.743,0,3.276,1.176,3.728,2.859c0.074,0.28-0.093,0.569-0.372,0.644
	c-0.044,0.012-0.09,0.018-0.136,0.018c-0.237,0-0.445-0.16-0.507-0.39l-0.038-0.133C10.315,2.699,9.298,1.92,8.14,1.862L8.004,1.859
	c-1.502,0-2.734,1.172-2.81,2.667L5.191,6.808h7.476c1.024,0,1.858,0.834,1.858,1.858v4.667c0,1.024-0.834,1.858-1.858,1.858H3.333z
	 M3.333,7.859c-0.41,0-0.755,0.307-0.803,0.714l-0.006,4.761c0,0.409,0.307,0.754,0.714,0.803l9.428,0.006
	c0.409-0.001,0.754-0.308,0.803-0.714l0.005-4.762c0-0.446-0.362-0.808-0.808-0.808H3.333z"/>
</svg>
