<?xml version="1.0" standalone="no"?><!DOCTYPE svg PUBLIC "-//W3C//DTD SVG 1.1//EN" "http://www.w3.org/Graphics/SVG/1.1/DTD/svg11.dtd"><svg t="1618302405550" class="icon" viewBox="0 0 1024 1024" version="1.1" xmlns="http://www.w3.org/2000/svg" p-id="15433" width="20" height="20" xmlns:xlink="http://www.w3.org/1999/xlink"><defs><style type="text/css"></style></defs><path d="M511.39 694.12c101 0.52 183.25-80.91 183.77-181.88S614.25 329 513.28 328.47 330 409.38 329.51 510.35V512a182.35 182.35 0 0 0 181.88 182.12zM86.21 512a477.77 477.77 0 0 1 8.51-90 159.42 159.42 0 0 0 122.35-82.43 173.13 173.13 0 0 0 6.14-155.43 420.73 420.73 0 0 1 159.45-97.32 155.41 155.41 0 0 0 214.65 47.3 155.34 155.34 0 0 0 47.3-47.3 422 422 0 0 1 158.74 98.5 172.19 172.19 0 0 0 7.56 154.25A158.7 158.7 0 0 0 929 419.64a468.82 468.82 0 0 1-3.3 196.06 160.84 160.84 0 0 0-114.32 82 172.21 172.21 0 0 0-11.81 141.73 422.39 422.39 0 0 1-164.64 97.79 155 155 0 0 0-244.95 0 418.42 418.42 0 0 1-162-96.37 172.68 172.68 0 0 0-10.87-144.33A159.68 159.68 0 0 0 99 614a467.77 467.77 0 0 1-12.79-102z" fill="#ffffff" p-id="15434"></path></svg>