<?xml version="1.0" encoding="utf-8"?>
<!-- Generator: Adobe Illustrator 21.0.0, SVG Export Plug-In . SVG Version: 6.00 Build 0)  -->
<svg version="1.1" id="图层_1" xmlns="http://www.w3.org/2000/svg" xmlns:xlink="http://www.w3.org/1999/xlink" x="0px" y="0px"
	 viewBox="0 0 16 16" style="enable-background:new 0 0 16 16;" xml:space="preserve">
<style type="text/css">
	.st0{fill:#4C97FF;}
</style>
<path class="st0" d="M3.333,15.192c-1.024,0-1.858-0.834-1.858-1.858V8.667c0-1.024,0.834-1.858,1.858-1.858h0.808V4.667
	c0-2.127,1.731-3.858,3.858-3.858c2.128,0,3.858,1.731,3.858,3.858v2.142h0.809c1.024,0,1.858,0.834,1.858,1.858v4.667
	c0,1.024-0.834,1.858-1.858,1.858H3.333z M3.333,7.859c-0.41,0-0.755,0.307-0.803,0.714l-0.006,4.761
	c0,0.409,0.307,0.754,0.714,0.803l9.428,0.006c0.409-0.001,0.754-0.308,0.803-0.714l0.005-4.762c0-0.446-0.362-0.808-0.808-0.808
	H3.333z M8,1.859c-1.498,0-2.73,1.172-2.805,2.667L5.192,6.808h5.617V4.667c0-1.498-1.172-2.73-2.668-2.805L8,1.859z"/>
</svg>
