<?xml version="1.0" standalone="no"?><!DOCTYPE svg PUBLIC "-//W3C//DTD SVG 1.1//EN" "http://www.w3.org/Graphics/SVG/1.1/DTD/svg11.dtd"><svg t="1615266176850" class="icon" viewBox="0 0 1024 1024" version="1.1" xmlns="http://www.w3.org/2000/svg" p-id="5564" width="21" height="21" xmlns:xlink="http://www.w3.org/1999/xlink"><defs><style type="text/css"></style></defs><path d="M768 841.142857q0-14.857143-10.857143-25.714286t-25.714286-10.857143-25.714286 10.857143-10.857143 25.714286 10.857143 25.714286 25.714286 10.857143 25.714286-10.857143 10.857143-25.714286zm146.285714 0q0-14.857143-10.857143-25.714286t-25.714286-10.857143-25.714286 10.857143-10.857143 25.714286 10.857143 25.714286 25.714286 10.857143 25.714286-10.857143 10.857143-25.714286zm73.142857-128l0 182.857143q0 22.857143-16 38.857143t-38.857143 16l-841.142857 0q-22.857143 0-38.857143-16t-16-38.857143l0-182.857143q0-22.857143 16-38.857143t38.857143-16l244 0q12 32 40.285714 52.571429t63.142857 20.571429l146.285714 0q34.857143 0 63.142857-20.571429t40.285714-52.571429l244 0q22.857143 0 38.857143 16t16 38.857143zm-185.714286-370.285714q-9.714286 22.857143-33.714286 22.857143l-146.285714 0 0 256q0 14.857143-10.857143 25.714286t-25.714286 10.857143l-146.285714 0q-14.857143 0-25.714286-10.857143t-10.857143-25.714286l0-256-146.285714 0q-24 0-33.714286-22.857143-9.714286-22.285714 8-39.428571l256-256q10.285714-10.857143 25.714286-10.857143t25.714286 10.857143l256 256q17.714286 17.142857 8 39.428571z" p-id="5565" fill="#ffffff"></path></svg>